<svg id="visual" viewBox="0 0 900 600" width="900" height="600" xmlns="http://www.w3.org/2000/svg" xmlns:xlink="http://www.w3.org/1999/xlink" version="1.1"><rect x="0" y="0" width="900" height="600" fill="#ffffff"></rect><defs><linearGradient id="grad1_0" x1="33.3%" y1="100%" x2="100%" y2="0%"><stop offset="20%" stop-color="#ffbf5f" stop-opacity="1"></stop><stop offset="80%" stop-color="#ffbf5f" stop-opacity="1"></stop></linearGradient></defs><defs><linearGradient id="grad1_1" x1="33.3%" y1="100%" x2="100%" y2="0%"><stop offset="20%" stop-color="#ffbf5f" stop-opacity="1"></stop><stop offset="80%" stop-color="#ffffff" stop-opacity="1"></stop></linearGradient></defs><defs><linearGradient id="grad2_0" x1="0%" y1="100%" x2="66.7%" y2="0%"><stop offset="20%" stop-color="#ffbf5f" stop-opacity="1"></stop><stop offset="80%" stop-color="#ffbf5f" stop-opacity="1"></stop></linearGradient></defs><defs><linearGradient id="grad2_1" x1="0%" y1="100%" x2="66.7%" y2="0%"><stop offset="20%" stop-color="#ffffff" stop-opacity="1"></stop><stop offset="80%" stop-color="#ffbf5f" stop-opacity="1"></stop></linearGradient></defs><g transform="translate(900, 600)"><path d="M-486.7 0C-461.7 -55.5 -436.7 -111 -417.6 -173C-398.4 -235 -385.2 -303.5 -344.2 -344.2C-303.2 -384.8 -234.6 -397.6 -172.6 -416.7C-110.6 -435.8 -55.3 -461.3 0 -486.7L0 0Z" fill="#ffdeaf"></path><path d="M-243.4 0C-230.9 -27.7 -218.4 -55.5 -208.8 -86.5C-199.2 -117.5 -192.6 -151.8 -172.1 -172.1C-151.6 -192.4 -117.3 -198.8 -86.3 -208.3C-55.3 -217.9 -27.7 -230.6 0 -243.4L0 0Z" fill="#ffbf5f"></path></g><g transform="translate(0, 0)"><path d="M486.7 0C478.8 62 470.9 123.9 449.7 186.3C428.5 248.6 393.9 311.4 342.2 342.2C290.6 373.1 221.8 372 161.9 390.8C102 409.6 51 448.2 0 486.7L0 0Z" fill="#ffdeaf"></path><path d="M243.4 0C239.4 31 235.5 62 224.8 93.1C214.2 124.3 197 155.7 171.1 171.1C145.3 186.5 110.9 186 80.9 195.4C51 204.8 25.5 224.1 0 243.4L0 0Z" fill="#ffbf5f"></path></g></svg>